<mxfile host="65bd71144e">
    <diagram id="C5RBs43oDa-KdzZeNtuy" name="Page-1">
        <mxGraphModel dx="1216" dy="1306" grid="1" gridSize="10" guides="1" tooltips="1" connect="1" arrows="1" fold="1" page="1" pageScale="1" pageWidth="1169" pageHeight="827" math="0" shadow="0">
            <root>
                <mxCell id="WIyWlLk6GJQsqaUBKTNV-0"/>
                <mxCell id="WIyWlLk6GJQsqaUBKTNV-1" parent="WIyWlLk6GJQsqaUBKTNV-0"/>
                <mxCell id="12" value="" style="rounded=0;whiteSpace=wrap;html=1;fontSize=12;" parent="WIyWlLk6GJQsqaUBKTNV-1" vertex="1">
                    <mxGeometry x="575" y="-816.5" width="155" height="106.5" as="geometry"/>
                </mxCell>
                <mxCell id="81g2fxTkUraFjSFszNYN-0" value="Reservation" style="swimlane;fontStyle=0;childLayout=stackLayout;horizontal=1;startSize=26;fillColor=none;horizontalStack=0;resizeParent=1;resizeParentMax=0;resizeLast=0;collapsible=1;marginBottom=0;whiteSpace=wrap;html=1;verticalAlign=bottom;fontSize=12;" parent="WIyWlLk6GJQsqaUBKTNV-1" vertex="1">
                    <mxGeometry x="70" y="-810" width="140" height="208" as="geometry"/>
                </mxCell>
                <mxCell id="81g2fxTkUraFjSFszNYN-1" value="+ ID: int" style="text;strokeColor=none;fillColor=none;align=left;verticalAlign=top;spacingLeft=4;spacingRight=4;overflow=hidden;rotatable=0;points=[[0,0.5],[1,0.5]];portConstraint=eastwest;whiteSpace=wrap;html=1;fontSize=12;" parent="81g2fxTkUraFjSFszNYN-0" vertex="1">
                    <mxGeometry y="26" width="140" height="26" as="geometry"/>
                </mxCell>
                <mxCell id="81g2fxTkUraFjSFszNYN-2" value="+ from: datetime" style="text;strokeColor=none;fillColor=none;align=left;verticalAlign=top;spacingLeft=4;spacingRight=4;overflow=hidden;rotatable=0;points=[[0,0.5],[1,0.5]];portConstraint=eastwest;whiteSpace=wrap;html=1;fontSize=12;" parent="81g2fxTkUraFjSFszNYN-0" vertex="1">
                    <mxGeometry y="52" width="140" height="26" as="geometry"/>
                </mxCell>
                <mxCell id="81g2fxTkUraFjSFszNYN-3" value="+ until: datetime" style="text;strokeColor=none;fillColor=none;align=left;verticalAlign=top;spacingLeft=4;spacingRight=4;overflow=hidden;rotatable=0;points=[[0,0.5],[1,0.5]];portConstraint=eastwest;whiteSpace=wrap;html=1;fontSize=12;" parent="81g2fxTkUraFjSFszNYN-0" vertex="1">
                    <mxGeometry y="78" width="140" height="26" as="geometry"/>
                </mxCell>
                <mxCell id="81g2fxTkUraFjSFszNYN-13" value="+ name: string" style="text;strokeColor=none;fillColor=none;align=left;verticalAlign=top;spacingLeft=4;spacingRight=4;overflow=hidden;rotatable=0;points=[[0,0.5],[1,0.5]];portConstraint=eastwest;whiteSpace=wrap;html=1;fontSize=12;" parent="81g2fxTkUraFjSFszNYN-0" vertex="1">
                    <mxGeometry y="104" width="140" height="26" as="geometry"/>
                </mxCell>
                <mxCell id="81g2fxTkUraFjSFszNYN-14" value="+ count: int" style="text;strokeColor=none;fillColor=none;align=left;verticalAlign=top;spacingLeft=4;spacingRight=4;overflow=hidden;rotatable=0;points=[[0,0.5],[1,0.5]];portConstraint=eastwest;whiteSpace=wrap;html=1;fontSize=12;" parent="81g2fxTkUraFjSFszNYN-0" vertex="1">
                    <mxGeometry y="130" width="140" height="26" as="geometry"/>
                </mxCell>
                <mxCell id="81g2fxTkUraFjSFszNYN-12" value="+ phone: string" style="text;strokeColor=none;fillColor=none;align=left;verticalAlign=top;spacingLeft=4;spacingRight=4;overflow=hidden;rotatable=0;points=[[0,0.5],[1,0.5]];portConstraint=eastwest;whiteSpace=wrap;html=1;fontSize=12;" parent="81g2fxTkUraFjSFszNYN-0" vertex="1">
                    <mxGeometry y="156" width="140" height="26" as="geometry"/>
                </mxCell>
                <mxCell id="81g2fxTkUraFjSFszNYN-16" value="+ email: string" style="text;strokeColor=none;fillColor=none;align=left;verticalAlign=top;spacingLeft=4;spacingRight=4;overflow=hidden;rotatable=0;points=[[0,0.5],[1,0.5]];portConstraint=eastwest;whiteSpace=wrap;html=1;fontSize=12;" parent="81g2fxTkUraFjSFszNYN-0" vertex="1">
                    <mxGeometry y="182" width="140" height="26" as="geometry"/>
                </mxCell>
                <mxCell id="81g2fxTkUraFjSFszNYN-4" value="Room" style="swimlane;fontStyle=0;childLayout=stackLayout;horizontal=1;startSize=26;fillColor=none;horizontalStack=0;resizeParent=1;resizeParentMax=0;resizeLast=0;collapsible=1;marginBottom=0;whiteSpace=wrap;html=1;fontSize=12;" parent="WIyWlLk6GJQsqaUBKTNV-1" vertex="1">
                    <mxGeometry x="316" y="-680" width="154" height="104" as="geometry"/>
                </mxCell>
                <mxCell id="81g2fxTkUraFjSFszNYN-17" value="+ ID: int" style="text;strokeColor=none;fillColor=none;align=left;verticalAlign=top;spacingLeft=4;spacingRight=4;overflow=hidden;rotatable=0;points=[[0,0.5],[1,0.5]];portConstraint=eastwest;whiteSpace=wrap;html=1;fontSize=12;" parent="81g2fxTkUraFjSFszNYN-4" vertex="1">
                    <mxGeometry y="26" width="154" height="26" as="geometry"/>
                </mxCell>
                <mxCell id="81g2fxTkUraFjSFszNYN-5" value="+ capacity: int" style="text;strokeColor=none;fillColor=none;align=left;verticalAlign=top;spacingLeft=4;spacingRight=4;overflow=hidden;rotatable=0;points=[[0,0.5],[1,0.5]];portConstraint=eastwest;whiteSpace=wrap;html=1;fontSize=12;" parent="81g2fxTkUraFjSFszNYN-4" vertex="1">
                    <mxGeometry y="52" width="154" height="26" as="geometry"/>
                </mxCell>
                <mxCell id="81g2fxTkUraFjSFszNYN-6" value="+ description: string" style="text;strokeColor=none;fillColor=none;align=left;verticalAlign=top;spacingLeft=4;spacingRight=4;overflow=hidden;rotatable=0;points=[[0,0.5],[1,0.5]];portConstraint=eastwest;whiteSpace=wrap;html=1;fontSize=12;" parent="81g2fxTkUraFjSFszNYN-4" vertex="1">
                    <mxGeometry y="78" width="154" height="26" as="geometry"/>
                </mxCell>
                <mxCell id="81g2fxTkUraFjSFszNYN-8" value="Expenses" style="swimlane;fontStyle=0;childLayout=stackLayout;horizontal=1;startSize=26;fillColor=none;horizontalStack=0;resizeParent=1;resizeParentMax=0;resizeLast=0;collapsible=1;marginBottom=0;whiteSpace=wrap;html=1;fontSize=12;" parent="WIyWlLk6GJQsqaUBKTNV-1" vertex="1">
                    <mxGeometry x="70" y="-329" width="140" height="156" as="geometry"/>
                </mxCell>
                <mxCell id="81g2fxTkUraFjSFszNYN-31" value="+ ID: int" style="text;strokeColor=none;fillColor=none;align=left;verticalAlign=top;spacingLeft=4;spacingRight=4;overflow=hidden;rotatable=0;points=[[0,0.5],[1,0.5]];portConstraint=eastwest;whiteSpace=wrap;html=1;fontSize=12;" parent="81g2fxTkUraFjSFszNYN-8" vertex="1">
                    <mxGeometry y="26" width="140" height="26" as="geometry"/>
                </mxCell>
                <mxCell id="81g2fxTkUraFjSFszNYN-9" value="+ price: int" style="text;strokeColor=none;fillColor=none;align=left;verticalAlign=top;spacingLeft=4;spacingRight=4;overflow=hidden;rotatable=0;points=[[0,0.5],[1,0.5]];portConstraint=eastwest;whiteSpace=wrap;html=1;fontSize=12;" parent="81g2fxTkUraFjSFszNYN-8" vertex="1">
                    <mxGeometry y="52" width="140" height="26" as="geometry"/>
                </mxCell>
                <mxCell id="81g2fxTkUraFjSFszNYN-10" value="+ time: Date" style="text;strokeColor=none;fillColor=none;align=left;verticalAlign=top;spacingLeft=4;spacingRight=4;overflow=hidden;rotatable=0;points=[[0,0.5],[1,0.5]];portConstraint=eastwest;whiteSpace=wrap;html=1;fontSize=12;" parent="81g2fxTkUraFjSFszNYN-8" vertex="1">
                    <mxGeometry y="78" width="140" height="26" as="geometry"/>
                </mxCell>
                <mxCell id="81g2fxTkUraFjSFszNYN-11" value="+ type: string" style="text;strokeColor=none;fillColor=none;align=left;verticalAlign=top;spacingLeft=4;spacingRight=4;overflow=hidden;rotatable=0;points=[[0,0.5],[1,0.5]];portConstraint=eastwest;whiteSpace=wrap;html=1;fontSize=12;" parent="81g2fxTkUraFjSFszNYN-8" vertex="1">
                    <mxGeometry y="104" width="140" height="26" as="geometry"/>
                </mxCell>
                <mxCell id="81g2fxTkUraFjSFszNYN-32" value="+ description: string" style="text;strokeColor=none;fillColor=none;align=left;verticalAlign=top;spacingLeft=4;spacingRight=4;overflow=hidden;rotatable=0;points=[[0,0.5],[1,0.5]];portConstraint=eastwest;whiteSpace=wrap;html=1;fontSize=12;" parent="81g2fxTkUraFjSFszNYN-8" vertex="1">
                    <mxGeometry y="130" width="140" height="26" as="geometry"/>
                </mxCell>
                <mxCell id="81g2fxTkUraFjSFszNYN-18" value="Table" style="swimlane;fontStyle=0;childLayout=stackLayout;horizontal=1;startSize=26;fillColor=none;horizontalStack=0;resizeParent=1;resizeParentMax=0;resizeLast=0;collapsible=1;marginBottom=0;whiteSpace=wrap;html=1;fontSize=12;" parent="WIyWlLk6GJQsqaUBKTNV-1" vertex="1">
                    <mxGeometry x="316" y="-810" width="154" height="78" as="geometry"/>
                </mxCell>
                <mxCell id="81g2fxTkUraFjSFszNYN-19" value="+ ID: int" style="text;strokeColor=none;fillColor=none;align=left;verticalAlign=top;spacingLeft=4;spacingRight=4;overflow=hidden;rotatable=0;points=[[0,0.5],[1,0.5]];portConstraint=eastwest;whiteSpace=wrap;html=1;fontSize=12;" parent="81g2fxTkUraFjSFszNYN-18" vertex="1">
                    <mxGeometry y="26" width="154" height="26" as="geometry"/>
                </mxCell>
                <mxCell id="81g2fxTkUraFjSFszNYN-20" value="+ capacity: int" style="text;strokeColor=none;fillColor=none;align=left;verticalAlign=top;spacingLeft=4;spacingRight=4;overflow=hidden;rotatable=0;points=[[0,0.5],[1,0.5]];portConstraint=eastwest;whiteSpace=wrap;html=1;fontSize=12;" parent="81g2fxTkUraFjSFszNYN-18" vertex="1">
                    <mxGeometry y="52" width="154" height="26" as="geometry"/>
                </mxCell>
                <mxCell id="81g2fxTkUraFjSFszNYN-67" value="" style="edgeStyle=orthogonalEdgeStyle;rounded=0;orthogonalLoop=1;jettySize=auto;html=1;startArrow=ERone;startFill=0;endArrow=ERzeroToMany;endFill=0;fontSize=12;" parent="WIyWlLk6GJQsqaUBKTNV-1" source="81g2fxTkUraFjSFszNYN-22" target="81g2fxTkUraFjSFszNYN-0" edge="1">
                    <mxGeometry relative="1" as="geometry"/>
                </mxCell>
                <mxCell id="81g2fxTkUraFjSFszNYN-22" value="Employee" style="swimlane;fontStyle=0;childLayout=stackLayout;horizontal=1;startSize=26;fillColor=none;horizontalStack=0;resizeParent=1;resizeParentMax=0;resizeLast=0;collapsible=1;marginBottom=0;whiteSpace=wrap;html=1;fontSize=12;" parent="WIyWlLk6GJQsqaUBKTNV-1" vertex="1">
                    <mxGeometry x="70" y="-520" width="140" height="130" as="geometry"/>
                </mxCell>
                <mxCell id="81g2fxTkUraFjSFszNYN-30" value="+ ID: int" style="text;strokeColor=none;fillColor=none;align=left;verticalAlign=top;spacingLeft=4;spacingRight=4;overflow=hidden;rotatable=0;points=[[0,0.5],[1,0.5]];portConstraint=eastwest;whiteSpace=wrap;html=1;fontSize=12;" parent="81g2fxTkUraFjSFszNYN-22" vertex="1">
                    <mxGeometry y="26" width="140" height="26" as="geometry"/>
                </mxCell>
                <mxCell id="81g2fxTkUraFjSFszNYN-23" value="+ login: string" style="text;strokeColor=none;fillColor=none;align=left;verticalAlign=top;spacingLeft=4;spacingRight=4;overflow=hidden;rotatable=0;points=[[0,0.5],[1,0.5]];portConstraint=eastwest;whiteSpace=wrap;html=1;fontSize=12;" parent="81g2fxTkUraFjSFszNYN-22" vertex="1">
                    <mxGeometry y="52" width="140" height="26" as="geometry"/>
                </mxCell>
                <mxCell id="81g2fxTkUraFjSFszNYN-24" value="+ password: string" style="text;strokeColor=none;fillColor=none;align=left;verticalAlign=top;spacingLeft=4;spacingRight=4;overflow=hidden;rotatable=0;points=[[0,0.5],[1,0.5]];portConstraint=eastwest;whiteSpace=wrap;html=1;fontSize=12;" parent="81g2fxTkUraFjSFszNYN-22" vertex="1">
                    <mxGeometry y="78" width="140" height="26" as="geometry"/>
                </mxCell>
                <mxCell id="81g2fxTkUraFjSFszNYN-25" value="+ role: string" style="text;strokeColor=none;fillColor=none;align=left;verticalAlign=top;spacingLeft=4;spacingRight=4;overflow=hidden;rotatable=0;points=[[0,0.5],[1,0.5]];portConstraint=eastwest;whiteSpace=wrap;html=1;fontSize=12;" parent="81g2fxTkUraFjSFszNYN-22" vertex="1">
                    <mxGeometry y="104" width="140" height="26" as="geometry"/>
                </mxCell>
                <mxCell id="9" style="edgeStyle=orthogonalEdgeStyle;html=1;exitX=0.5;exitY=0;exitDx=0;exitDy=0;entryX=0.5;entryY=1;entryDx=0;entryDy=0;rounded=0;endArrow=block;endFill=0;strokeWidth=1;endSize=11;fontSize=12;" parent="WIyWlLk6GJQsqaUBKTNV-1" source="81g2fxTkUraFjSFszNYN-26" target="1" edge="1">
                    <mxGeometry relative="1" as="geometry"/>
                </mxCell>
                <mxCell id="81g2fxTkUraFjSFszNYN-26" value="Food" style="swimlane;fontStyle=0;childLayout=stackLayout;horizontal=1;startSize=26;fillColor=none;horizontalStack=0;resizeParent=1;resizeParentMax=0;resizeLast=0;collapsible=1;marginBottom=0;whiteSpace=wrap;html=1;fontSize=12;" parent="WIyWlLk6GJQsqaUBKTNV-1" vertex="1">
                    <mxGeometry x="510" y="-290" width="140" height="78" as="geometry"/>
                </mxCell>
                <mxCell id="81g2fxTkUraFjSFszNYN-27" value="+ allergens: string" style="text;strokeColor=none;fillColor=none;align=left;verticalAlign=top;spacingLeft=4;spacingRight=4;overflow=hidden;rotatable=0;points=[[0,0.5],[1,0.5]];portConstraint=eastwest;whiteSpace=wrap;html=1;fontSize=12;" parent="81g2fxTkUraFjSFszNYN-26" vertex="1">
                    <mxGeometry y="26" width="140" height="26" as="geometry"/>
                </mxCell>
                <mxCell id="81g2fxTkUraFjSFszNYN-28" value="+ grams: int" style="text;strokeColor=none;fillColor=none;align=left;verticalAlign=top;spacingLeft=4;spacingRight=4;overflow=hidden;rotatable=0;points=[[0,0.5],[1,0.5]];portConstraint=eastwest;whiteSpace=wrap;html=1;fontSize=12;" parent="81g2fxTkUraFjSFszNYN-26" vertex="1">
                    <mxGeometry y="52" width="140" height="26" as="geometry"/>
                </mxCell>
                <mxCell id="81g2fxTkUraFjSFszNYN-33" value="Company" style="swimlane;fontStyle=0;childLayout=stackLayout;horizontal=1;startSize=26;fillColor=none;horizontalStack=0;resizeParent=1;resizeParentMax=0;resizeLast=0;collapsible=1;marginBottom=0;whiteSpace=wrap;html=1;fontSize=12;" parent="WIyWlLk6GJQsqaUBKTNV-1" vertex="1">
                    <mxGeometry x="316" y="-316" width="154" height="130" as="geometry"/>
                </mxCell>
                <mxCell id="81g2fxTkUraFjSFszNYN-37" value="+ ID: int" style="text;strokeColor=none;fillColor=none;align=left;verticalAlign=top;spacingLeft=4;spacingRight=4;overflow=hidden;rotatable=0;points=[[0,0.5],[1,0.5]];portConstraint=eastwest;whiteSpace=wrap;html=1;fontSize=12;" parent="81g2fxTkUraFjSFszNYN-33" vertex="1">
                    <mxGeometry y="26" width="154" height="26" as="geometry"/>
                </mxCell>
                <mxCell id="81g2fxTkUraFjSFszNYN-38" value="+ name: string" style="text;strokeColor=none;fillColor=none;align=left;verticalAlign=top;spacingLeft=4;spacingRight=4;overflow=hidden;rotatable=0;points=[[0,0.5],[1,0.5]];portConstraint=eastwest;whiteSpace=wrap;html=1;fontSize=12;" parent="81g2fxTkUraFjSFszNYN-33" vertex="1">
                    <mxGeometry y="52" width="154" height="26" as="geometry"/>
                </mxCell>
                <mxCell id="81g2fxTkUraFjSFszNYN-39" value="+ phone: string" style="text;strokeColor=none;fillColor=none;align=left;verticalAlign=top;spacingLeft=4;spacingRight=4;overflow=hidden;rotatable=0;points=[[0,0.5],[1,0.5]];portConstraint=eastwest;whiteSpace=wrap;html=1;fontSize=12;" parent="81g2fxTkUraFjSFszNYN-33" vertex="1">
                    <mxGeometry y="78" width="154" height="26" as="geometry"/>
                </mxCell>
                <mxCell id="81g2fxTkUraFjSFszNYN-34" value="+ owner: name" style="text;strokeColor=none;fillColor=none;align=left;verticalAlign=top;spacingLeft=4;spacingRight=4;overflow=hidden;rotatable=0;points=[[0,0.5],[1,0.5]];portConstraint=eastwest;whiteSpace=wrap;html=1;fontSize=12;" parent="81g2fxTkUraFjSFszNYN-33" vertex="1">
                    <mxGeometry y="104" width="154" height="26" as="geometry"/>
                </mxCell>
                <mxCell id="81g2fxTkUraFjSFszNYN-40" value="Menu" style="swimlane;fontStyle=0;childLayout=stackLayout;horizontal=1;startSize=26;fillColor=none;horizontalStack=0;resizeParent=1;resizeParentMax=0;resizeLast=0;collapsible=1;marginBottom=0;whiteSpace=wrap;html=1;fontSize=12;" parent="WIyWlLk6GJQsqaUBKTNV-1" vertex="1">
                    <mxGeometry x="590" y="-690" width="140" height="104" as="geometry"/>
                </mxCell>
                <mxCell id="81g2fxTkUraFjSFszNYN-64" value="+ ID: int" style="text;strokeColor=none;fillColor=none;align=left;verticalAlign=top;spacingLeft=4;spacingRight=4;overflow=hidden;rotatable=0;points=[[0,0.5],[1,0.5]];portConstraint=eastwest;whiteSpace=wrap;html=1;fontSize=12;" parent="81g2fxTkUraFjSFszNYN-40" vertex="1">
                    <mxGeometry y="26" width="140" height="26" as="geometry"/>
                </mxCell>
                <mxCell id="81g2fxTkUraFjSFszNYN-65" value="+ name: string" style="text;strokeColor=none;fillColor=none;align=left;verticalAlign=top;spacingLeft=4;spacingRight=4;overflow=hidden;rotatable=0;points=[[0,0.5],[1,0.5]];portConstraint=eastwest;whiteSpace=wrap;html=1;fontSize=12;" parent="81g2fxTkUraFjSFszNYN-40" vertex="1">
                    <mxGeometry y="52" width="140" height="26" as="geometry"/>
                </mxCell>
                <mxCell id="81g2fxTkUraFjSFszNYN-66" value="+ description: string" style="text;strokeColor=none;fillColor=none;align=left;verticalAlign=top;spacingLeft=4;spacingRight=4;overflow=hidden;rotatable=0;points=[[0,0.5],[1,0.5]];portConstraint=eastwest;whiteSpace=wrap;html=1;fontSize=12;" parent="81g2fxTkUraFjSFszNYN-40" vertex="1">
                    <mxGeometry y="78" width="140" height="26" as="geometry"/>
                </mxCell>
                <mxCell id="81g2fxTkUraFjSFszNYN-44" value="Order" style="swimlane;fontStyle=0;childLayout=stackLayout;horizontal=1;startSize=26;fillColor=none;horizontalStack=0;resizeParent=1;resizeParentMax=0;resizeLast=0;collapsible=1;marginBottom=0;whiteSpace=wrap;html=1;fontSize=12;" parent="WIyWlLk6GJQsqaUBKTNV-1" vertex="1">
                    <mxGeometry x="316" y="-520" width="154" height="182" as="geometry"/>
                </mxCell>
                <mxCell id="81g2fxTkUraFjSFszNYN-48" value="+ ID: int" style="text;strokeColor=none;fillColor=none;align=left;verticalAlign=top;spacingLeft=4;spacingRight=4;overflow=hidden;rotatable=0;points=[[0,0.5],[1,0.5]];portConstraint=eastwest;whiteSpace=wrap;html=1;fontSize=12;" parent="81g2fxTkUraFjSFszNYN-44" vertex="1">
                    <mxGeometry y="26" width="154" height="26" as="geometry"/>
                </mxCell>
                <mxCell id="81g2fxTkUraFjSFszNYN-49" value="+ time: datetime" style="text;strokeColor=none;fillColor=none;align=left;verticalAlign=top;spacingLeft=4;spacingRight=4;overflow=hidden;rotatable=0;points=[[0,0.5],[1,0.5]];portConstraint=eastwest;whiteSpace=wrap;html=1;fontSize=12;" parent="81g2fxTkUraFjSFszNYN-44" vertex="1">
                    <mxGeometry y="52" width="154" height="26" as="geometry"/>
                </mxCell>
                <mxCell id="81g2fxTkUraFjSFszNYN-45" value="+ prepared: bool" style="text;strokeColor=none;fillColor=none;align=left;verticalAlign=top;spacingLeft=4;spacingRight=4;overflow=hidden;rotatable=0;points=[[0,0.5],[1,0.5]];portConstraint=eastwest;whiteSpace=wrap;html=1;fontSize=12;" parent="81g2fxTkUraFjSFszNYN-44" vertex="1">
                    <mxGeometry y="78" width="154" height="26" as="geometry"/>
                </mxCell>
                <mxCell id="81g2fxTkUraFjSFszNYN-46" value="+ preparedTime: datetime" style="text;strokeColor=none;fillColor=none;align=left;verticalAlign=top;spacingLeft=4;spacingRight=4;overflow=hidden;rotatable=0;points=[[0,0.5],[1,0.5]];portConstraint=eastwest;whiteSpace=wrap;html=1;fontSize=12;" parent="81g2fxTkUraFjSFszNYN-44" vertex="1">
                    <mxGeometry y="104" width="154" height="26" as="geometry"/>
                </mxCell>
                <mxCell id="81g2fxTkUraFjSFszNYN-47" value="+ payed: bool" style="text;strokeColor=none;fillColor=none;align=left;verticalAlign=top;spacingLeft=4;spacingRight=4;overflow=hidden;rotatable=0;points=[[0,0.5],[1,0.5]];portConstraint=eastwest;whiteSpace=wrap;html=1;fontSize=12;" parent="81g2fxTkUraFjSFszNYN-44" vertex="1">
                    <mxGeometry y="130" width="154" height="26" as="geometry"/>
                </mxCell>
                <mxCell id="31" value="+ mealID: int" style="text;strokeColor=none;fillColor=none;align=left;verticalAlign=top;spacingLeft=4;spacingRight=4;overflow=hidden;rotatable=0;points=[[0,0.5],[1,0.5]];portConstraint=eastwest;whiteSpace=wrap;html=1;fontSize=12;" parent="81g2fxTkUraFjSFszNYN-44" vertex="1">
                    <mxGeometry y="156" width="154" height="26" as="geometry"/>
                </mxCell>
                <mxCell id="10" style="edgeStyle=orthogonalEdgeStyle;html=1;exitX=0.5;exitY=0;exitDx=0;exitDy=0;entryX=0.5;entryY=1;entryDx=0;entryDy=0;endArrow=block;endFill=0;rounded=0;strokeWidth=1;endSize=11;fontSize=12;" parent="WIyWlLk6GJQsqaUBKTNV-1" source="81g2fxTkUraFjSFszNYN-55" target="1" edge="1">
                    <mxGeometry relative="1" as="geometry"/>
                </mxCell>
                <mxCell id="81g2fxTkUraFjSFszNYN-55" value="Drink" style="swimlane;fontStyle=0;childLayout=stackLayout;horizontal=1;startSize=26;fillColor=none;horizontalStack=0;resizeParent=1;resizeParentMax=0;resizeLast=0;collapsible=1;marginBottom=0;whiteSpace=wrap;html=1;fontSize=12;" parent="WIyWlLk6GJQsqaUBKTNV-1" vertex="1">
                    <mxGeometry x="670" y="-290" width="140" height="52" as="geometry"/>
                </mxCell>
                <mxCell id="81g2fxTkUraFjSFszNYN-62" value="+ volume: int" style="text;strokeColor=none;fillColor=none;align=left;verticalAlign=top;spacingLeft=4;spacingRight=4;overflow=hidden;rotatable=0;points=[[0,0.5],[1,0.5]];portConstraint=eastwest;whiteSpace=wrap;html=1;fontSize=12;" parent="81g2fxTkUraFjSFszNYN-55" vertex="1">
                    <mxGeometry y="26" width="140" height="26" as="geometry"/>
                </mxCell>
                <mxCell id="81g2fxTkUraFjSFszNYN-70" style="edgeStyle=orthogonalEdgeStyle;rounded=0;orthogonalLoop=1;jettySize=auto;html=1;startArrow=ERzeroToMany;startFill=0;endArrow=ERoneToMany;endFill=0;fontSize=12;" parent="WIyWlLk6GJQsqaUBKTNV-1" source="81g2fxTkUraFjSFszNYN-0" target="81g2fxTkUraFjSFszNYN-18" edge="1">
                    <mxGeometry relative="1" as="geometry"/>
                </mxCell>
                <mxCell id="81g2fxTkUraFjSFszNYN-73" style="edgeStyle=orthogonalEdgeStyle;rounded=0;orthogonalLoop=1;jettySize=auto;html=1;entryX=0;entryY=0.5;entryDx=0;entryDy=0;startArrow=ERzeroToMany;startFill=0;endArrow=ERoneToMany;endFill=0;fontSize=12;" parent="WIyWlLk6GJQsqaUBKTNV-1" source="81g2fxTkUraFjSFszNYN-12" target="81g2fxTkUraFjSFszNYN-17" edge="1">
                    <mxGeometry relative="1" as="geometry"/>
                </mxCell>
                <mxCell id="81g2fxTkUraFjSFszNYN-75" style="rounded=0;orthogonalLoop=1;jettySize=auto;html=1;edgeStyle=orthogonalEdgeStyle;startArrow=ERzeroToMany;startFill=0;endArrow=ERzeroToOne;endFill=0;fontSize=12;" parent="WIyWlLk6GJQsqaUBKTNV-1" source="81g2fxTkUraFjSFszNYN-44" target="81g2fxTkUraFjSFszNYN-4" edge="1">
                    <mxGeometry relative="1" as="geometry">
                        <mxPoint x="400" y="-570" as="targetPoint"/>
                    </mxGeometry>
                </mxCell>
                <mxCell id="81g2fxTkUraFjSFszNYN-78" style="edgeStyle=orthogonalEdgeStyle;rounded=0;orthogonalLoop=1;jettySize=auto;html=1;endArrow=ERzeroToOne;endFill=0;startArrow=ERzeroToMany;startFill=0;fontSize=12;" parent="WIyWlLk6GJQsqaUBKTNV-1" source="81g2fxTkUraFjSFszNYN-44" target="81g2fxTkUraFjSFszNYN-18" edge="1">
                    <mxGeometry relative="1" as="geometry">
                        <Array as="points">
                            <mxPoint x="500" y="-481"/>
                            <mxPoint x="500" y="-771"/>
                        </Array>
                    </mxGeometry>
                </mxCell>
                <mxCell id="81g2fxTkUraFjSFszNYN-80" style="edgeStyle=orthogonalEdgeStyle;rounded=0;orthogonalLoop=1;jettySize=auto;html=1;startArrow=ERone;startFill=0;endArrow=ERoneToMany;endFill=0;fontSize=12;" parent="WIyWlLk6GJQsqaUBKTNV-1" source="31" target="2" edge="1">
                    <mxGeometry relative="1" as="geometry"/>
                </mxCell>
                <mxCell id="81g2fxTkUraFjSFszNYN-81" style="edgeStyle=orthogonalEdgeStyle;rounded=0;orthogonalLoop=1;jettySize=auto;html=1;entryX=0.5;entryY=0.971;entryDx=0;entryDy=0;entryPerimeter=0;startArrow=ERmany;startFill=0;endArrow=ERmany;endFill=0;fontSize=12;" parent="WIyWlLk6GJQsqaUBKTNV-1" source="1" target="81g2fxTkUraFjSFszNYN-66" edge="1">
                    <mxGeometry relative="1" as="geometry"/>
                </mxCell>
                <mxCell id="81g2fxTkUraFjSFszNYN-83" style="edgeStyle=orthogonalEdgeStyle;rounded=0;orthogonalLoop=1;jettySize=auto;html=1;exitX=0;exitY=0.5;exitDx=0;exitDy=0;endArrow=ERzeroToMany;endFill=0;startArrow=ERone;startFill=0;fontSize=12;" parent="WIyWlLk6GJQsqaUBKTNV-1" source="81g2fxTkUraFjSFszNYN-38" target="81g2fxTkUraFjSFszNYN-8" edge="1">
                    <mxGeometry relative="1" as="geometry"/>
                </mxCell>
                <mxCell id="81g2fxTkUraFjSFszNYN-84" style="edgeStyle=orthogonalEdgeStyle;rounded=0;orthogonalLoop=1;jettySize=auto;html=1;endArrow=ERone;endFill=0;startArrow=ERzeroToMany;startFill=0;fontSize=12;" parent="WIyWlLk6GJQsqaUBKTNV-1" source="81g2fxTkUraFjSFszNYN-8" target="81g2fxTkUraFjSFszNYN-22" edge="1">
                    <mxGeometry relative="1" as="geometry"/>
                </mxCell>
                <mxCell id="1" value="Meal" style="swimlane;fontStyle=0;childLayout=stackLayout;horizontal=1;startSize=26;fillColor=none;horizontalStack=0;resizeParent=1;resizeParentMax=0;resizeLast=0;collapsible=1;marginBottom=0;whiteSpace=wrap;html=1;fontSize=12;" parent="WIyWlLk6GJQsqaUBKTNV-1" vertex="1">
                    <mxGeometry x="590" y="-520" width="140" height="156" as="geometry"/>
                </mxCell>
                <mxCell id="2" value="+ ID: int" style="text;strokeColor=none;fillColor=none;align=left;verticalAlign=top;spacingLeft=4;spacingRight=4;overflow=hidden;rotatable=0;points=[[0,0.5],[1,0.5]];portConstraint=eastwest;whiteSpace=wrap;html=1;fontSize=12;" parent="1" vertex="1">
                    <mxGeometry y="26" width="140" height="26" as="geometry"/>
                </mxCell>
                <mxCell id="3" value="+ name: string" style="text;strokeColor=none;fillColor=none;align=left;verticalAlign=top;spacingLeft=4;spacingRight=4;overflow=hidden;rotatable=0;points=[[0,0.5],[1,0.5]];portConstraint=eastwest;whiteSpace=wrap;html=1;fontSize=12;" parent="1" vertex="1">
                    <mxGeometry y="52" width="140" height="26" as="geometry"/>
                </mxCell>
                <mxCell id="4" value="+ description: string" style="text;strokeColor=none;fillColor=none;align=left;verticalAlign=top;spacingLeft=4;spacingRight=4;overflow=hidden;rotatable=0;points=[[0,0.5],[1,0.5]];portConstraint=eastwest;whiteSpace=wrap;html=1;fontSize=12;" parent="1" vertex="1">
                    <mxGeometry y="78" width="140" height="26" as="geometry"/>
                </mxCell>
                <mxCell id="6" value="+ price: int" style="text;strokeColor=none;fillColor=none;align=left;verticalAlign=top;spacingLeft=4;spacingRight=4;overflow=hidden;rotatable=0;points=[[0,0.5],[1,0.5]];portConstraint=eastwest;whiteSpace=wrap;html=1;fontSize=12;" parent="1" vertex="1">
                    <mxGeometry y="104" width="140" height="26" as="geometry"/>
                </mxCell>
                <mxCell id="7" value="+ type: string" style="text;strokeColor=none;fillColor=none;align=left;verticalAlign=top;spacingLeft=4;spacingRight=4;overflow=hidden;rotatable=0;points=[[0,0.5],[1,0.5]];portConstraint=eastwest;whiteSpace=wrap;html=1;fontSize=12;" parent="1" vertex="1">
                    <mxGeometry y="130" width="140" height="26" as="geometry"/>
                </mxCell>
                <mxCell id="11" value="" style="endArrow=ERone;html=1;rounded=0;strokeWidth=1;endSize=11;startArrow=none;startFill=0;endFill=0;fontSize=12;" parent="WIyWlLk6GJQsqaUBKTNV-1" edge="1">
                    <mxGeometry width="50" height="50" relative="1" as="geometry">
                        <mxPoint x="585" y="-805.08" as="sourcePoint"/>
                        <mxPoint x="635" y="-805.08" as="targetPoint"/>
                    </mxGeometry>
                </mxCell>
                <mxCell id="13" value="One" style="text;html=1;align=center;verticalAlign=middle;resizable=0;points=[];autosize=1;strokeColor=none;fillColor=none;fontSize=12;" parent="WIyWlLk6GJQsqaUBKTNV-1" vertex="1">
                    <mxGeometry x="660" y="-820" width="50" height="30" as="geometry"/>
                </mxCell>
                <mxCell id="14" value="" style="endArrow=ERzeroToOne;html=1;rounded=0;strokeWidth=1;endSize=11;startArrow=none;startFill=0;endFill=0;fontSize=12;" parent="WIyWlLk6GJQsqaUBKTNV-1" edge="1">
                    <mxGeometry width="50" height="50" relative="1" as="geometry">
                        <mxPoint x="585" y="-785.08" as="sourcePoint"/>
                        <mxPoint x="635" y="-785.08" as="targetPoint"/>
                    </mxGeometry>
                </mxCell>
                <mxCell id="15" value="Zero or one" style="text;html=1;align=center;verticalAlign=middle;resizable=0;points=[];autosize=1;strokeColor=none;fillColor=none;fontSize=12;" parent="WIyWlLk6GJQsqaUBKTNV-1" vertex="1">
                    <mxGeometry x="640" y="-800" width="90" height="30" as="geometry"/>
                </mxCell>
                <mxCell id="22" value="" style="endArrow=ERmany;html=1;rounded=0;strokeWidth=1;endSize=11;startArrow=none;startFill=0;endFill=0;fontSize=12;" parent="WIyWlLk6GJQsqaUBKTNV-1" edge="1">
                    <mxGeometry width="50" height="50" relative="1" as="geometry">
                        <mxPoint x="585" y="-725.08" as="sourcePoint"/>
                        <mxPoint x="635" y="-725.08" as="targetPoint"/>
                    </mxGeometry>
                </mxCell>
                <mxCell id="23" value="Many" style="text;html=1;align=center;verticalAlign=middle;resizable=0;points=[];autosize=1;strokeColor=none;fillColor=none;fontSize=12;" parent="WIyWlLk6GJQsqaUBKTNV-1" vertex="1">
                    <mxGeometry x="660" y="-740" width="50" height="30" as="geometry"/>
                </mxCell>
                <mxCell id="24" value="" style="endArrow=ERzeroToMany;html=1;rounded=0;strokeWidth=1;endSize=11;startArrow=none;startFill=0;endFill=0;fontSize=12;" parent="WIyWlLk6GJQsqaUBKTNV-1" edge="1">
                    <mxGeometry width="50" height="50" relative="1" as="geometry">
                        <mxPoint x="585" y="-765.08" as="sourcePoint"/>
                        <mxPoint x="635" y="-765.08" as="targetPoint"/>
                    </mxGeometry>
                </mxCell>
                <mxCell id="25" value="Zero or many" style="text;html=1;align=center;verticalAlign=middle;resizable=0;points=[];autosize=1;strokeColor=none;fillColor=none;fontSize=12;" parent="WIyWlLk6GJQsqaUBKTNV-1" vertex="1">
                    <mxGeometry x="640" y="-780" width="90" height="30" as="geometry"/>
                </mxCell>
                <mxCell id="29" value="" style="endArrow=ERoneToMany;html=1;rounded=0;strokeWidth=1;endSize=11;startArrow=none;startFill=0;endFill=0;fontSize=12;" parent="WIyWlLk6GJQsqaUBKTNV-1" edge="1">
                    <mxGeometry width="50" height="50" relative="1" as="geometry">
                        <mxPoint x="585" y="-745.08" as="sourcePoint"/>
                        <mxPoint x="635" y="-745.08" as="targetPoint"/>
                    </mxGeometry>
                </mxCell>
                <mxCell id="30" value="One or many" style="text;html=1;align=center;verticalAlign=middle;resizable=0;points=[];autosize=1;strokeColor=none;fillColor=none;fontSize=12;" parent="WIyWlLk6GJQsqaUBKTNV-1" vertex="1">
                    <mxGeometry x="640" y="-760" width="90" height="30" as="geometry"/>
                </mxCell>
            </root>
        </mxGraphModel>
    </diagram>
</mxfile>
